PathFileType	4	(X/Y/Z)	F:\MotionCapture\20160217\3\Generated_files\EMG_Fprce_test04-Dynamic.trc
DataRate	CameraRate	NumFrames	NumMarkers	Units	OrigDataRate	OrigDataStartFrame	OrigNumFrames
120.00	120.00	       5	39	mm	120.00	142	       566
Frame#	Time	Top.Head			Front.Head			Rear.Head			R.Shoulder			R.Offset			R.Elbow			R.Wrist			L.Shoulder			L.Elbow			L.Wrist			R.ASIS			L.ASIS			V.Sacral			R.Thigh			R.Knee			R.Shank			R.Ankle			R.Heel			R.Toe			L.Thigh			L.Knee			L.Shank			L.Ankle			L.Heel			L.Toe			R1			R2			R3			R4			R5			R6			R7			L1			L2			L3			L4			L5			L6			L7			V_Mid_ASIS			V_Pelvis_Origin			V_R.Hip_JC			V_L.Hip_JC			V_R.Knee_JC			V_L.Knee_JC			V_R.Ankle_JC			V_L.Ankle_JC			V_Mid_Hip			V_Mid_Shoulder			V_R.Hand			V_L.Hand			V_R.Toe_Offset_Static			V_L.Toe_Offset_Static			V_R.Toe_Offset			V_L.Toe_Offset			
		X1	Y1	Z1	X2	Y2	Z2	X3	Y3	Z3	X4	Y4	Z4	X5	Y5	Z5	X6	Y6	Z6	X7	Y7	Z7	X8	Y8	Z8	X9	Y9	Z9	X10	Y10	Z10	X11	Y11	Z11	X12	Y12	Z12	X13	Y13	Z13	X14	Y14	Z14	X15	Y15	Z15	X16	Y16	Z16	X17	Y17	Z17	X18	Y18	Z18	X19	Y19	Z19	X20	Y20	Z20	X21	Y21	Z21	X22	Y22	Z22	X23	Y23	Z23	X24	Y24	Z24	X25	Y25	Z25	X26	Y26	Z26	X27	Y27	Z27	X28	Y28	Z28	X29	Y29	Z29	X30	Y30	Z30	X31	Y31	Z31	X32	Y32	Z32	X33	Y33	Z33	X34	Y34	Z34	X35	Y35	Z35	X36	Y36	Z36	X37	Y37	Z37	X38	Y38	Z38	X39	Y39	Z39	

142	1.175	1380.40430	151.78725	1684.48779	1263.49744	150.71426	1610.23145	1483.15808	145.93903	1607.65503	1413.43665	346.02872	1376.69788	1553.59851	81.30256	1236.44849	1398.23499	464.09921	1056.26001	1183.83081	413.06827	913.57745	1400.01477	-62.93191	1376.85156	1514.22864	-182.78807	1092.31873	1502.03796	-248.42131	842.73401	1383.91980	302.03979	896.34564	1338.36365	16.27543	902.50909	1581.06226	110.85655	904.17175	1452.51587	259.60876	517.67883	1569.33911	286.06674	439.44562	1679.76758	206.35304	231.11742	1813.00293	267.52188	113.26527	1881.70898	201.72330	113.25828	1690.29675	258.12454	41.98864	1207.70020	62.58972	642.44922	1219.17297	-4.54787	466.47421	1165.12952	71.97709	338.10770	1152.82483	4.73457	66.20298	1212.84912	62.64214	38.96843	1014.99402	12.64742	68.79036	1642.30249	243.94373	39.16731	1681.09863	220.66351	46.40129	1764.38086	181.20105	79.75784	1835.54517	175.03986	95.32217	1855.87793	247.24725	101.81889	1791.83093	279.82828	59.26625	1733.14038	297.92532	39.11353	975.37927	36.00965	79.43131	1002.21295	49.47332	72.96796	1093.05115	94.37447	63.13351	1175.68774	95.38187	44.69397	1186.24683	22.38322	40.83863	1109.56506	-4.05164	41.81778	1051.10242	-14.65786	57.08097	
143	1.183	1369.81396	150.28944	1685.67224	1252.81311	149.23990	1611.16809	1472.11548	144.15463	1608.38306	1402.40552	344.50562	1377.04846	1542.10657	79.68364	1236.42676	1388.16016	461.88757	1056.33008	1174.68188	412.06183	912.65009	1389.09619	-64.99335	1377.46265	1502.66040	-184.32753	1092.47400	1491.21729	-249.69585	842.81152	1371.28833	300.46863	896.38757	1325.76282	14.74214	904.10321	1568.23633	109.21629	904.57690	1438.66541	259.67450	518.03088	1556.37695	287.08966	440.19055	1671.88049	208.15630	233.55176	1808.70996	268.95050	118.95123	1877.10461	202.51219	122.59673	1689.32813	258.57440	42.01699	1193.86450	61.21974	644.36035	1206.34509	-5.11811	468.65909	1157.20032	72.34680	338.06201	1149.37939	3.76462	66.27917	1210.65515	61.52052	39.76629	1012.35974	13.73706	63.72596	1642.13623	243.90070	39.08857	1680.43213	220.84822	46.05912	1760.71240	182.86909	84.15497	1831.64050	178.13287	100.62408	1851.53442	248.18080	109.33157	1789.38293	280.90692	63.20903	1732.42102	297.80096	39.62465	969.40607	39.15683	70.48643	998.09491	50.11643	67.52559	1090.50891	94.29774	61.10759	1173.39294	94.69044	45.25050	1183.67004	21.52816	41.18739	1108.07568	-5.03228	41.46667	1047.61072	-12.75584	53.84289																																																	939.47668	356.36401	829.24640	
144	1.192	1358.40503	148.23218	1686.63818	1241.18689	147.62100	1613.43835	1461.23413	142.31160	1609.76990	1390.96094	342.98489	1377.80164	1530.54065	78.54877	1237.24597	1378.00134	459.21295	1056.82507	1165.78284	410.65750	911.04840	1378.36133	-66.74743	1378.43372	1490.48083	-185.61549	1092.84473	1479.72546	-251.31259	843.41241	1356.95081	297.96042	896.68768	1313.42896	12.49930	905.97113	1555.29590	107.87302	905.28461	1423.51050	259.43768	517.75879	1541.64795	288.18930	439.64398	1663.29785	209.84853	236.03851	1803.74585	270.35901	125.88673	1870.20691	204.28548	132.42276	1688.23132	258.90561	42.07708	1181.44666	59.35764	646.33643	1193.60107	-5.67172	471.19119	1148.93506	72.50354	337.98547	1146.76013	3.52238	65.55750	1209.13159	60.46159	41.16227	1009.73279	15.25340	59.15160	1642.10278	243.85051	39.05072	1679.59570	221.08472	45.69019	1756.24597	183.58113	89.12366	1825.92859	179.32774	109.01569	1846.18188	249.19971	117.55217	1786.50732	281.85895	67.60762	1731.28687	297.73401	40.10717	969.96765	39.83483	67.78920	997.32751	52.00062	63.12165	1089.97241	94.77971	59.77684	1172.27747	93.68169	45.21097	1182.41711	19.93422	41.36007	1105.84692	-5.46509	39.85692	1044.18396	-11.88384	49.27221	
145	1.200	1347.42419	147.00507	1688.75415	1229.61218	145.79736	1614.49512	1449.88879	140.43787	1611.19922	1379.06519	341.67087	1379.11072	1518.35950	77.12000	1238.44531	1368.70789	456.94012	1057.53003	1157.46252	410.15674	909.22821	1367.01514	-68.72722	1379.57861	1478.03052	-186.49365	1093.22925	1467.74390	-252.63860	843.75818	1343.75159	296.12256	897.30304	1300.84204	10.10754	908.20605	1542.03113	106.28035	906.39661	1408.06396	259.75354	518.27899	1525.78967	290.12189	439.51181	1653.10583	211.84859	238.99275	1797.50256	272.33426	132.58455	1862.55200	204.60330	142.77147	1687.36963	258.87329	41.93730	1168.36780	56.76823	648.47278	1180.46545	-5.92141	473.06335	1141.03101	72.81236	338.08694	1142.89490	4.35218	63.66444	1208.08850	59.54315	42.40469	1007.49200	17.32585	54.63451	1642.49658	243.93912	39.14703	1678.51074	221.32893	45.64734	1751.02539	185.63626	94.23151	1818.58032	180.16763	117.91420	1839.98853	250.03613	126.82722	1783.22571	282.44214	72.79086	1729.91931	296.75739	41.35089	968.22974	43.29439	62.61143	995.61975	54.03016	58.78554	1088.86255	94.63670	58.51055	1171.09949	93.32092	45.55406	1180.62097	19.54135	41.42663	1104.13293	-5.45044	36.87895	1042.65454	-11.24856	46.23298	
146	1.208	1336.48779	145.35048	1690.24744	1218.75574	144.46025	1616.47693	1438.62207	138.34966	1612.90137	1366.65820	340.05276	1380.85071	1506.21155	75.47881	1239.93921	1358.92822	454.46738	1058.74036	1149.45227	408.95206	907.62292	1356.25525	-70.74316	1381.38098	1465.19653	-187.69106	1094.11206	1454.54688	-253.53375	845.05084	1329.82629	292.84857	898.92200	1288.99927	7.76813	910.75806	1529.61084	105.36823	908.08997	1390.92920	259.68002	518.89917	1509.16577	291.54379	439.97595	1642.21680	214.13507	241.88078	1790.07861	273.85303	139.97960	1852.74219	205.90169	154.42374	1686.42114	258.99106	42.18680	1156.35229	54.11660	650.93054	1169.10352	-6.19769	473.47110	1133.76794	72.43350	337.58173	1142.01917	3.35083	64.06985	1206.54651	59.03923	42.70295	1005.18317	17.85565	51.43619	1642.80945	244.12231	39.39142	1677.38916	221.41057	45.51623	1744.35522	187.14503	99.68372	1809.36145	181.00667	127.21713	1832.45825	250.47041	136.46120	1778.95154	282.82736	78.49859	1727.84192	295.60135	42.81964	963.21014	43.69619	54.93640	994.35846	54.40342	54.32689	1087.51440	95.46385	56.81287	1169.81714	93.37301	45.64463	1180.43652	18.97729	43.13399	1102.71790	-4.34507	36.77626	1040.48596	-10.80431	45.05122																																																	992.06299	55.19858	52.91842	1566.57458	310.54718	-29.82010	
